<svg xmlns="http://www.w3.org/2000/svg" viewBox="0 0 64 64"><rect width="64" height="64" rx="12" fill="#0B0139"/><g transform="translate(12.4 10.5) scale(0.0645)"><path d="M 71.571 1.571 C 70.159 2.984, 70 16.156, 70 131.617 L 70 260.091 72.455 262.545 C 77.898 267.989, 75.129 270.353, 144.241 201.241 C 200.085 145.397, 208 137.112, 208 134.500 C 208 131.886, 199.858 123.375, 142.242 65.758 C 106.074 29.591, 75.731 0, 74.813 0 C 73.894 0, 72.436 0.707, 71.571 1.571 M 464.750 65.383 L 399 130.665 399 134.093 L 399 137.521 462.768 201.261 C 497.841 236.317, 527.295 265, 528.221 265 C 531.203 265, 534.749 262.846, 535.890 260.343 C 536.685 258.598, 537 221.772, 537 130.608 L 537 3.310 535.171 1.655 C 534.165 0.745, 532.703 0.023, 531.921 0.051 C 531.140 0.078, 500.913 29.478, 464.750 65.383 M 298.500 79.048 C 297.400 79.481, 230.274 146.135, 149.331 227.168 C 21.412 355.228, 2.021 375.023, 1.086 378.500 C -0.369 383.916, -0.274 387.410, 1.443 391.519 C 2.962 395.153, 150.254 628.436, 152.626 630.964 C 153.831 632.248, 154.197 632.232, 155.598 630.831 L 157.195 629.233 144.182 556.867 C 137.025 517.065, 131.272 484.397, 131.397 484.271 C 131.523 484.145, 141.773 501.020, 154.176 521.771 L 176.727 559.500 185.876 601.315 C 195.159 643.741, 196.590 648.439, 201.658 653.131 C 204.017 655.314, 264.904 690, 266.378 690 C 266.636 690, 263.064 678.668, 258.439 664.818 C 253.815 650.968, 250.136 639.565, 250.265 639.478 C 250.394 639.392, 262.034 640.419, 276.132 641.762 L 301.764 644.204 326.632 641.759 C 340.309 640.414, 351.711 639.492, 351.970 639.710 C 352.228 639.928, 348.751 651.192, 344.242 664.742 C 339.734 678.292, 336.215 689.549, 336.423 689.756 C 336.630 689.964, 352.194 681.666, 371.008 671.317 C 399.120 655.854, 405.625 651.876, 407.507 649 C 409.460 646.014, 410.624 639.701, 415.433 606 C 418.533 584.275, 421.636 564.700, 422.328 562.500 C 423.019 560.300, 429.641 549.725, 437.043 539 L 450.500 519.500 451.257 546 C 451.673 560.575, 452.348 582.625, 452.757 595 L 453.500 617.500 455.223 617.500 C 456.728 617.500, 503.401 547.394, 594.617 408.119 C 601.731 397.257, 606.006 389.757, 606.015 388.119 C 606.030 384, 606 380, 605.694 378.234 C 605.392 376.730, 604.100 374.041, 602.822 372.257 C 599.880 368.149, 304.203 79.717, 302.076 78.880 C 301.209 78.539, 299.600 78.615, 298.500 79.048 M 301 336.717 L 301 567.675 332.250 571.457 C 369.980 576.023, 374.719 577.775, 380.451 589.278 L 383 594.393 383 617.696 C 383 630.513, 383.337 640.998, 383.750 640.996 C 385.402 640.988, 391 636.948, 391.001 635.765 C 391.001 635.069, 393.437 616.719, 396.414 594.986 C 401.558 557.434, 403.020 550.318, 406.886 544 C 413.426 533.314, 467.529 456.839, 467.723 458.007 C 467.859 458.828, 469.556 480.167, 471.495 505.427 C 473.434 530.687, 475.165 551.499, 475.342 551.676 C 475.519 551.853, 500.298 514.310, 530.407 468.249 L 585.150 384.500 559.772 359.500 C 487.963 288.759, 331.837 135.498, 317.456 121.630 L 301 105.760 301 336.717 M 390.828 351.265 C 353.608 400.338, 323.282 440.615, 323.436 440.770 C 324.034 441.367, 440.963 376.445, 440.991 375.500 C 441.007 374.950, 437.588 364.673, 433.394 352.663 L 425.768 330.826 432.775 316.163 C 436.629 308.098, 444.084 292.613, 449.343 281.750 C 454.602 270.887, 458.814 262.009, 458.702 262.021 C 458.591 262.032, 428.047 302.192, 390.828 351.265 M 145.125 268.647 C 145.331 269.278, 152.148 283.463, 160.272 300.169 L 175.044 330.544 167.272 353.185 C 162.998 365.638, 159.725 376.007, 160 376.227 C 160.275 376.447, 186.150 390.726, 217.500 407.959 C 248.850 425.191, 274.950 439.545, 275.500 439.857 C 276.050 440.169, 275.104 438.641, 273.398 436.462 C 271.693 434.283, 242.498 395.825, 208.521 351 C 146.839 269.623, 144.414 266.474, 145.125 268.647" fill="#5B70FF" fill-rule="evenodd"/></g></svg>